# xmcd
#
# Track frame offsets: 
#        150
#        12697
#        27402
#        39935
#        51250
#        64932
#        77877
#        91950
#        105265
#        119470
#        130052
#        141820
#        152805
#        164842
#        177145
#        189617
#        200735
#        213755
#        223795
#        240130
#
# Disc length: 3378 seconds
#
# Revision: 3
# Processed by: cddbd v1.5.1PL0 Copyright (c) Steve Scherf et al.
# Submitted via: ExactAudioCopy v0.95b2
#
DISCID=1c0d3014
DTITLE=B.B. King - Do The Boogie!  B.B. King's Early 50s Classics
DYEAR=1988
DGENRE=Blues
TTITLE0=Boogie Woogie Woman
TTITLE1=Past Day
TTITLE2=I Gotta Find My Baby
TTITLE3=Bye Bye Baby
TTITLE4=Woke Up This Morning (My Baby's Gone)
TTITLE5=Please Love Me
TTITLE6=Blind Love
TTITLE7=When My Heart Beats Like A Hammer
TTITLE8=Whole Lotta Love
TTITLE9=That Ain't  The Way To Do It
TTITLE10=Everyday
TTITLE11=Let's Do The Boogie
TTITLE12=Dark Is The Night - Part 1
TTITLE13=Dark Is The Night - Part 2
TTITLE14=Why I Sing The Blues
TTITLE15=Everything I Do Is Wrong
TTITLE16=The Woman I Love
TTITLE17=Jump With Your Baby
TTITLE18=Troubles, Troubles, Troubles
TTITLE19=Crying Won't Help You
EXTD=YEAR: 1988 ID3G:   0
EXTT0=
EXTT1=
EXTT2=
EXTT3=
EXTT4=
EXTT5=
EXTT6=
EXTT7=
EXTT8=
EXTT9=
EXTT10=
EXTT11=
EXTT12=
EXTT13=
EXTT14=
EXTT15=
EXTT16=
EXTT17=
EXTT18=
EXTT19=
PLAYORDER=
